<?xml version="1.0" encoding="utf-8" standalone="no"?>
<!DOCTYPE svg PUBLIC "-//W3C//DTD SVG 1.1//EN"
  "http://www.w3.org/Graphics/SVG/1.1/DTD/svg11.dtd">
<svg xmlns:xlink="http://www.w3.org/1999/xlink" width="703.91952pt" height="523.91952pt" viewBox="0 0 703.91952 523.91952" xmlns="http://www.w3.org/2000/svg" version="1.1">
 <metadata>
  <rdf:RDF xmlns:dc="http://purl.org/dc/elements/1.1/" xmlns:cc="http://creativecommons.org/ns#" xmlns:rdf="http://www.w3.org/1999/02/22-rdf-syntax-ns#">
   <cc:Work>
    <dc:type rdf:resource="http://purl.org/dc/dcmitype/StillImage"/>
    <dc:date>2026-08-22T09:21:27.123774</dc:date>
    <dc:format>image/svg+xml</dc:format>
    <dc:creator>
     <cc:Agent>
      <dc:title>Matplotlib v3.10.8, https://matplotlib.org/</dc:title>
     </cc:Agent>
    </dc:creator>
   </cc:Work>
  </rdf:RDF>
 </metadata>
 <defs>
  <style type="text/css">*{stroke-linejoin: round; stroke-linecap: butt}</style>
 </defs>
 <g id="figure_1">
  <g id="patch_1">
   <path d="M 0 523.91952 
L 703.91952 523.91952 
L 703.91952 0 
L 0 0 
z
" style="fill: #ffffff"/>
  </g>
  <g id="axes_1">
   <g id="patch_2">
    <path d="M 120.814563 479.135457 
L 690.95952 479.135457 
L 690.95952 12.96 
L 120.814563 12.96 
z
" style="fill: #ffffff"/>
   </g>
   <g id="patch_3">
    <path d="M 146.730242 479.135457 
L 294.819842 479.135457 
L 294.819842 455.81976 
L 146.730242 455.81976 
z
" clip-path="url(#pbae96c4c69)" style="fill: url(#h2c39222b43); stroke: #000000; stroke-width: 2.2; stroke-linejoin: miter"/>
   </g>
   <g id="patch_4">
    <path d="M 331.842242 479.135457 
L 479.931841 479.135457 
L 479.931841 375.769199 
L 331.842242 375.769199 
z
" clip-path="url(#pbae96c4c69)" style="fill: url(#h98184db925); stroke: #000000; stroke-width: 2.2; stroke-linejoin: miter"/>
   </g>
   <g id="patch_5">
    <path d="M 516.954241 479.135457 
L 665.04384 479.135457 
L 665.04384 119.463067 
L 516.954241 119.463067 
z
" clip-path="url(#pbae96c4c69)" style="fill: url(#he6783fe4ff); stroke: #000000; stroke-width: 2.2; stroke-linejoin: miter"/>
   </g>
   <g id="matplotlib.axis_1">
    <g id="xtick_1">
     <g id="line2d_1">
      <defs>
       <path id="m009258df68" d="M 0 0 
L 0 3.5 
" style="stroke: #000000; stroke-width: 0.8"/>
      </defs>
      <g>
       <use xlink:href="#m009258df68" x="220.775042" y="479.135457" style="stroke: #000000; stroke-width: 0.8"/>
      </g>
     </g>
     <g id="text_1">
      <text style="font-size: 21px; font-family: 'DejaVu Sans', 'Bitstream Vera Sans', 'Computer Modern Sans Serif', 'Lucida Grande', 'Verdana', 'Geneva', 'Lucid', 'Arial', 'Helvetica', 'Avant Garde', sans-serif; text-anchor: middle" x="220.775042" y="506.592176" transform="rotate(-0 220.775042 506.592176)">Fixed</text>
     </g>
    </g>
    <g id="xtick_2">
     <g id="line2d_2">
      <g>
       <use xlink:href="#m009258df68" x="405.887041" y="479.135457" style="stroke: #000000; stroke-width: 0.8"/>
      </g>
     </g>
     <g id="text_2">
      <text style="font-size: 21px; font-family: 'DejaVu Sans', 'Bitstream Vera Sans', 'Computer Modern Sans Serif', 'Lucida Grande', 'Verdana', 'Geneva', 'Lucid', 'Arial', 'Helvetica', 'Avant Garde', sans-serif; text-anchor: middle" x="405.887041" y="506.592176" transform="rotate(-0 405.887041 506.592176)">BP</text>
     </g>
    </g>
    <g id="xtick_3">
     <g id="line2d_3">
      <g>
       <use xlink:href="#m009258df68" x="590.99904" y="479.135457" style="stroke: #000000; stroke-width: 0.8"/>
      </g>
     </g>
     <g id="text_3">
      <text style="font-size: 21px; font-family: 'DejaVu Sans', 'Bitstream Vera Sans', 'Computer Modern Sans Serif', 'Lucida Grande', 'Verdana', 'Geneva', 'Lucid', 'Arial', 'Helvetica', 'Avant Garde', sans-serif; text-anchor: middle" x="590.99904" y="506.592176" transform="rotate(-0 590.99904 506.592176)">UrbSigOpt</text>
     </g>
    </g>
   </g>
   <g id="matplotlib.axis_2">
    <g id="ytick_1">
     <g id="line2d_4">
      <path d="M 120.814563 479.135457 
L 690.95952 479.135457 
" clip-path="url(#pbae96c4c69)" style="fill: none; stroke-dasharray: 4.44,1.92; stroke-dashoffset: 0; stroke: #c0c0c0; stroke-opacity: 0.45; stroke-width: 1.2"/>
     </g>
     <g id="line2d_5">
      <defs>
       <path id="mbad2297f21" d="M 0 0 
L -3.5 0 
" style="stroke: #000000; stroke-width: 0.8"/>
      </defs>
      <g>
       <use xlink:href="#mbad2297f21" x="120.814563" y="479.135457" style="stroke: #000000; stroke-width: 0.8"/>
      </g>
     </g>
     <g id="text_4">
      <text style="font-size: 21px; font-family: 'DejaVu Sans', 'Bitstream Vera Sans', 'Computer Modern Sans Serif', 'Lucida Grande', 'Verdana', 'Geneva', 'Lucid', 'Arial', 'Helvetica', 'Avant Garde', sans-serif; text-anchor: end" x="109.314563" y="487.113817" transform="rotate(-0 109.314563 487.113817)">0</text>
     </g>
    </g>
    <g id="ytick_2">
     <g id="line2d_6">
      <path d="M 120.814563 423.621892 
L 690.95952 423.621892 
" clip-path="url(#pbae96c4c69)" style="fill: none; stroke-dasharray: 4.44,1.92; stroke-dashoffset: 0; stroke: #c0c0c0; stroke-opacity: 0.45; stroke-width: 1.2"/>
     </g>
     <g id="line2d_7">
      <g>
       <use xlink:href="#mbad2297f21" x="120.814563" y="423.621892" style="stroke: #000000; stroke-width: 0.8"/>
      </g>
     </g>
     <g id="text_5">
      <text style="font-size: 21px; font-family: 'DejaVu Sans', 'Bitstream Vera Sans', 'Computer Modern Sans Serif', 'Lucida Grande', 'Verdana', 'Geneva', 'Lucid', 'Arial', 'Helvetica', 'Avant Garde', sans-serif; text-anchor: end" x="109.314563" y="431.600251" transform="rotate(-0 109.314563 431.600251)">50</text>
     </g>
    </g>
    <g id="ytick_3">
     <g id="line2d_8">
      <path d="M 120.814563 368.108327 
L 690.95952 368.108327 
" clip-path="url(#pbae96c4c69)" style="fill: none; stroke-dasharray: 4.44,1.92; stroke-dashoffset: 0; stroke: #c0c0c0; stroke-opacity: 0.45; stroke-width: 1.2"/>
     </g>
     <g id="line2d_9">
      <g>
       <use xlink:href="#mbad2297f21" x="120.814563" y="368.108327" style="stroke: #000000; stroke-width: 0.8"/>
      </g>
     </g>
     <g id="text_6">
      <text style="font-size: 21px; font-family: 'DejaVu Sans', 'Bitstream Vera Sans', 'Computer Modern Sans Serif', 'Lucida Grande', 'Verdana', 'Geneva', 'Lucid', 'Arial', 'Helvetica', 'Avant Garde', sans-serif; text-anchor: end" x="109.314563" y="376.086686" transform="rotate(-0 109.314563 376.086686)">100</text>
     </g>
    </g>
    <g id="ytick_4">
     <g id="line2d_10">
      <path d="M 120.814563 312.594761 
L 690.95952 312.594761 
" clip-path="url(#pbae96c4c69)" style="fill: none; stroke-dasharray: 4.44,1.92; stroke-dashoffset: 0; stroke: #c0c0c0; stroke-opacity: 0.45; stroke-width: 1.2"/>
     </g>
     <g id="line2d_11">
      <g>
       <use xlink:href="#mbad2297f21" x="120.814563" y="312.594761" style="stroke: #000000; stroke-width: 0.8"/>
      </g>
     </g>
     <g id="text_7">
      <text style="font-size: 21px; font-family: 'DejaVu Sans', 'Bitstream Vera Sans', 'Computer Modern Sans Serif', 'Lucida Grande', 'Verdana', 'Geneva', 'Lucid', 'Arial', 'Helvetica', 'Avant Garde', sans-serif; text-anchor: end" x="109.314563" y="320.57312" transform="rotate(-0 109.314563 320.57312)">150</text>
     </g>
    </g>
    <g id="ytick_5">
     <g id="line2d_12">
      <path d="M 120.814563 257.081196 
L 690.95952 257.081196 
" clip-path="url(#pbae96c4c69)" style="fill: none; stroke-dasharray: 4.44,1.92; stroke-dashoffset: 0; stroke: #c0c0c0; stroke-opacity: 0.45; stroke-width: 1.2"/>
     </g>
     <g id="line2d_13">
      <g>
       <use xlink:href="#mbad2297f21" x="120.814563" y="257.081196" style="stroke: #000000; stroke-width: 0.8"/>
      </g>
     </g>
     <g id="text_8">
      <text style="font-size: 21px; font-family: 'DejaVu Sans', 'Bitstream Vera Sans', 'Computer Modern Sans Serif', 'Lucida Grande', 'Verdana', 'Geneva', 'Lucid', 'Arial', 'Helvetica', 'Avant Garde', sans-serif; text-anchor: end" x="109.314563" y="265.059555" transform="rotate(-0 109.314563 265.059555)">200</text>
     </g>
    </g>
    <g id="ytick_6">
     <g id="line2d_14">
      <path d="M 120.814563 201.56763 
L 690.95952 201.56763 
" clip-path="url(#pbae96c4c69)" style="fill: none; stroke-dasharray: 4.44,1.92; stroke-dashoffset: 0; stroke: #c0c0c0; stroke-opacity: 0.45; stroke-width: 1.2"/>
     </g>
     <g id="line2d_15">
      <g>
       <use xlink:href="#mbad2297f21" x="120.814563" y="201.56763" style="stroke: #000000; stroke-width: 0.8"/>
      </g>
     </g>
     <g id="text_9">
      <text style="font-size: 21px; font-family: 'DejaVu Sans', 'Bitstream Vera Sans', 'Computer Modern Sans Serif', 'Lucida Grande', 'Verdana', 'Geneva', 'Lucid', 'Arial', 'Helvetica', 'Avant Garde', sans-serif; text-anchor: end" x="109.314563" y="209.54599" transform="rotate(-0 109.314563 209.54599)">250</text>
     </g>
    </g>
    <g id="ytick_7">
     <g id="line2d_16">
      <path d="M 120.814563 146.054065 
L 690.95952 146.054065 
" clip-path="url(#pbae96c4c69)" style="fill: none; stroke-dasharray: 4.44,1.92; stroke-dashoffset: 0; stroke: #c0c0c0; stroke-opacity: 0.45; stroke-width: 1.2"/>
     </g>
     <g id="line2d_17">
      <g>
       <use xlink:href="#mbad2297f21" x="120.814563" y="146.054065" style="stroke: #000000; stroke-width: 0.8"/>
      </g>
     </g>
     <g id="text_10">
      <text style="font-size: 21px; font-family: 'DejaVu Sans', 'Bitstream Vera Sans', 'Computer Modern Sans Serif', 'Lucida Grande', 'Verdana', 'Geneva', 'Lucid', 'Arial', 'Helvetica', 'Avant Garde', sans-serif; text-anchor: end" x="109.314563" y="154.032424" transform="rotate(-0 109.314563 154.032424)">300</text>
     </g>
    </g>
    <g id="ytick_8">
     <g id="line2d_18">
      <path d="M 120.814563 90.540499 
L 690.95952 90.540499 
" clip-path="url(#pbae96c4c69)" style="fill: none; stroke-dasharray: 4.44,1.92; stroke-dashoffset: 0; stroke: #c0c0c0; stroke-opacity: 0.45; stroke-width: 1.2"/>
     </g>
     <g id="line2d_19">
      <g>
       <use xlink:href="#mbad2297f21" x="120.814563" y="90.540499" style="stroke: #000000; stroke-width: 0.8"/>
      </g>
     </g>
     <g id="text_11">
      <text style="font-size: 21px; font-family: 'DejaVu Sans', 'Bitstream Vera Sans', 'Computer Modern Sans Serif', 'Lucida Grande', 'Verdana', 'Geneva', 'Lucid', 'Arial', 'Helvetica', 'Avant Garde', sans-serif; text-anchor: end" x="109.314563" y="98.518859" transform="rotate(-0 109.314563 98.518859)">350</text>
     </g>
    </g>
    <g id="ytick_9">
     <g id="line2d_20">
      <path d="M 120.814563 35.026934 
L 690.95952 35.026934 
" clip-path="url(#pbae96c4c69)" style="fill: none; stroke-dasharray: 4.44,1.92; stroke-dashoffset: 0; stroke: #c0c0c0; stroke-opacity: 0.45; stroke-width: 1.2"/>
     </g>
     <g id="line2d_21">
      <g>
       <use xlink:href="#mbad2297f21" x="120.814563" y="35.026934" style="stroke: #000000; stroke-width: 0.8"/>
      </g>
     </g>
     <g id="text_12">
      <text style="font-size: 21px; font-family: 'DejaVu Sans', 'Bitstream Vera Sans', 'Computer Modern Sans Serif', 'Lucida Grande', 'Verdana', 'Geneva', 'Lucid', 'Arial', 'Helvetica', 'Avant Garde', sans-serif; text-anchor: end" x="109.314563" y="43.005293" transform="rotate(-0 109.314563 43.005293)">400</text>
     </g>
    </g>
    <g id="text_13">
     <text style="font-weight: 700; font-size: 22px; font-family: 'DejaVu Sans', 'Bitstream Vera Sans', 'Computer Modern Sans Serif', 'Lucida Grande', 'Verdana', 'Geneva', 'Lucid', 'Arial', 'Helvetica', 'Avant Garde', sans-serif" transform="translate(29.676563 383.277885) rotate(-90)">Throughput (vehicles)</text>
     <text style="font-weight: 700; font-size: 22px; font-family: 'DejaVu Sans', 'Bitstream Vera Sans', 'Computer Modern Sans Serif', 'Lucida Grande', 'Verdana', 'Geneva', 'Lucid', 'Arial', 'Helvetica', 'Avant Garde', sans-serif" transform="translate(54.483625 354.89101) rotate(-90)">[Higher is Better]</text>
    </g>
   </g>
   <g id="LineCollection_1">
    <path d="M 220.775042 457.085664 
L 220.775042 454.553856 
" clip-path="url(#pbae96c4c69)" style="fill: none; stroke: #000000; stroke-width: 2.2"/>
    <path d="M 405.887041 380.58194 
L 405.887041 370.956457 
" clip-path="url(#pbae96c4c69)" style="fill: none; stroke: #000000; stroke-width: 2.2"/>
    <path d="M 590.99904 203.767302 
L 590.99904 35.158831 
" clip-path="url(#pbae96c4c69)" style="fill: none; stroke: #000000; stroke-width: 2.2"/>
   </g>
   <g id="line2d_22">
    <defs>
     <path id="m2059834a47" d="M 7 0 
L -7 -0 
" style="stroke: #000000; stroke-width: 2.2"/>
    </defs>
    <g clip-path="url(#pbae96c4c69)">
     <use xlink:href="#m2059834a47" x="220.775042" y="457.085664" style="fill: #1f77b4; stroke: #000000; stroke-width: 2.2"/>
     <use xlink:href="#m2059834a47" x="405.887041" y="380.58194" style="fill: #1f77b4; stroke: #000000; stroke-width: 2.2"/>
     <use xlink:href="#m2059834a47" x="590.99904" y="203.767302" style="fill: #1f77b4; stroke: #000000; stroke-width: 2.2"/>
    </g>
   </g>
   <g id="line2d_23">
    <g clip-path="url(#pbae96c4c69)">
     <use xlink:href="#m2059834a47" x="220.775042" y="454.553856" style="fill: #1f77b4; stroke: #000000; stroke-width: 2.2"/>
     <use xlink:href="#m2059834a47" x="405.887041" y="370.956457" style="fill: #1f77b4; stroke: #000000; stroke-width: 2.2"/>
     <use xlink:href="#m2059834a47" x="590.99904" y="35.158831" style="fill: #1f77b4; stroke: #000000; stroke-width: 2.2"/>
    </g>
   </g>
   <g id="patch_6">
    <path d="M 120.814563 479.135457 
L 120.814563 12.96 
" style="fill: none; stroke: #000000; stroke-width: 2.2; stroke-linejoin: miter; stroke-linecap: square"/>
   </g>
   <g id="patch_7">
    <path d="M 690.95952 479.135457 
L 690.95952 12.96 
" style="fill: none; stroke: #000000; stroke-width: 2.2; stroke-linejoin: miter; stroke-linecap: square"/>
   </g>
   <g id="patch_8">
    <path d="M 120.814563 479.135457 
L 690.95952 479.135457 
" style="fill: none; stroke: #000000; stroke-width: 2.2; stroke-linejoin: miter; stroke-linecap: square"/>
   </g>
   <g id="patch_9">
    <path d="M 120.814563 12.96 
L 690.95952 12.96 
" style="fill: none; stroke: #000000; stroke-width: 2.2; stroke-linejoin: miter; stroke-linecap: square"/>
   </g>
  </g>
 </g>
 <defs>
  <clipPath id="pbae96c4c69">
   <rect x="120.814563" y="12.96" width="570.144958" height="466.175457"/>
  </clipPath>
 </defs>
 <defs>
  <pattern id="h2c39222b43" patternUnits="userSpaceOnUse" x="0" y="0" width="72" height="72">
   <rect x="0" y="0" width="73" height="73" fill="#ffb3ba"/>
   <path d="M -36 36 
L 36 -36 
M -32 40 
L 40 -32 
M -28 44 
L 44 -28 
M -24 48 
L 48 -24 
M -20 52 
L 52 -20 
M -16 56 
L 56 -16 
M -12 60 
L 60 -12 
M -8 64 
L 64 -8 
M -4 68 
L 68 -4 
M 0 72 
L 72 0 
M 4 76 
L 76 4 
M 8 80 
L 80 8 
M 12 84 
L 84 12 
M 16 88 
L 88 16 
M 20 92 
L 92 20 
M 24 96 
L 96 24 
M 28 100 
L 100 28 
M 32 104 
L 104 32 
M 36 108 
L 108 36 
" style="fill: #000000; stroke: #000000; stroke-width: 2.0; stroke-linecap: butt; stroke-linejoin: miter"/>
  </pattern>
  <pattern id="h98184db925" patternUnits="userSpaceOnUse" x="0" y="0" width="72" height="72">
   <rect x="0" y="0" width="73" height="73" fill="#bae1ff"/>
   <path d="M -36 36 
L 36 108 
M -32 32 
L 40 104 
M -28 28 
L 44 100 
M -24 24 
L 48 96 
M -20 20 
L 52 92 
M -16 16 
L 56 88 
M -12 12 
L 60 84 
M -8 8 
L 64 80 
M -4 4 
L 68 76 
M 0 0 
L 72 72 
M 4 -4 
L 76 68 
M 8 -8 
L 80 64 
M 12 -12 
L 84 60 
M 16 -16 
L 88 56 
M 20 -20 
L 92 52 
M 24 -24 
L 96 48 
M 28 -28 
L 100 44 
M 32 -32 
L 104 40 
M 36 -36 
L 108 36 
" style="fill: #000000; stroke: #000000; stroke-width: 2.0; stroke-linecap: butt; stroke-linejoin: miter"/>
  </pattern>
  <pattern id="he6783fe4ff" patternUnits="userSpaceOnUse" x="0" y="0" width="72" height="72">
   <rect x="0" y="0" width="73" height="73" fill="#baffc9"/>
   <path d="M -36 36 
L 36 -36 
M -32 40 
L 40 -32 
M -28 44 
L 44 -28 
M -24 48 
L 48 -24 
M -20 52 
L 52 -20 
M -16 56 
L 56 -16 
M -12 60 
L 60 -12 
M -8 64 
L 64 -8 
M -4 68 
L 68 -4 
M 0 72 
L 72 0 
M 4 76 
L 76 4 
M 8 80 
L 80 8 
M 12 84 
L 84 12 
M 16 88 
L 88 16 
M 20 92 
L 92 20 
M 24 96 
L 96 24 
M 28 100 
L 100 28 
M 32 104 
L 104 32 
M 36 108 
L 108 36 
M -36 36 
L 36 108 
M -32 32 
L 40 104 
M -28 28 
L 44 100 
M -24 24 
L 48 96 
M -20 20 
L 52 92 
M -16 16 
L 56 88 
M -12 12 
L 60 84 
M -8 8 
L 64 80 
M -4 4 
L 68 76 
M 0 0 
L 72 72 
M 4 -4 
L 76 68 
M 8 -8 
L 80 64 
M 12 -12 
L 84 60 
M 16 -16 
L 88 56 
M 20 -20 
L 92 52 
M 24 -24 
L 96 48 
M 28 -28 
L 100 44 
M 32 -32 
L 104 40 
M 36 -36 
L 108 36 
" style="fill: #000000; stroke: #000000; stroke-width: 2.0; stroke-linecap: butt; stroke-linejoin: miter"/>
  </pattern>
 </defs>
</svg>
